<?xml version="1.0" encoding="UTF-8" standalone="no"?>
<svg
   width="1357.7516"
   height="164.17192"
   viewBox="0 0 1357.7516 164.17192"
   version="1.1"
   xml:space="preserve"
   style="clip-rule:evenodd;fill-rule:evenodd;stroke-linejoin:round;stroke-miterlimit:2"
   id="svg10"
   sodipodi:docname="ArcWht.svg"
   inkscape:version="1.3 (0e150ed6c4, 2023-07-21)"
   xmlns:inkscape="http://www.inkscape.org/namespaces/inkscape"
   xmlns:sodipodi="http://sodipodi.sourceforge.net/DTD/sodipodi-0.dtd"
   xmlns="http://www.w3.org/2000/svg"
   xmlns:svg="http://www.w3.org/2000/svg"><defs
   id="defs10" /><sodipodi:namedview
   id="namedview10"
   pagecolor="#ffffff"
   bordercolor="#000000"
   borderopacity="0.25"
   inkscape:showpageshadow="2"
   inkscape:pageopacity="0.0"
   inkscape:pagecheckerboard="0"
   inkscape:deskcolor="#d1d1d1"
   inkscape:zoom="0.29503991"
   inkscape:cx="679.56908"
   inkscape:cy="79.650242"
   inkscape:window-width="1920"
   inkscape:window-height="1046"
   inkscape:window-x="-11"
   inkscape:window-y="-11"
   inkscape:window-maximized="1"
   inkscape:current-layer="svg10" />&#10;    <g
   transform="matrix(4.16667,0,0,4.16667,143.79909,66.916178)"
   id="g1">&#10;        <path
   d="m 0,16.547 c -0.286,0.239 -0.428,0.358 -0.714,0.598 -0.227,-0.128 -0.443,-0.23 -0.65,-0.309 -0.207,-0.078 -0.383,-0.053 -0.525,0.066 -1.805,1.516 -3.907,2.814 -6.217,3.908 -2.312,1.093 -4.79,1.826 -7.444,2.202 -2.346,0.332 -4.574,0.277 -6.695,-0.167 -2.121,-0.444 -4.018,-1.204 -5.691,-2.282 -1.673,-1.078 -3.074,-2.445 -4.198,-4.102 -1.125,-1.657 -1.855,-3.531 -2.187,-5.627 -0.336,-2.121 -0.229,-4.149 0.328,-6.083 0.557,-1.934 1.497,-3.674 2.826,-5.213 1.33,-1.539 3.027,-2.843 5.088,-3.907 2.06,-1.063 4.421,-1.786 7.073,-2.16 1.379,-0.195 2.754,-0.268 4.125,-0.221 1.371,0.047 2.627,0.152 3.769,0.313 1.141,0.161 2.121,0.332 2.939,0.512 0.818,0.18 1.394,0.301 1.725,0.362 0.248,0.046 0.544,0.043 0.886,-0.015 0.343,-0.057 0.607,-0.202 0.793,-0.435 0.362,0.173 0.542,0.261 0.903,0.434 -1.365,2.865 -2.041,4.298 -3.383,7.167 C -7.623,1.433 -7.811,1.356 -8.185,1.202 -8.132,0.991 -8.104,0.885 -8.052,0.675 -8.103,0.29 -8.446,-0.076 -9.081,-0.423 c -0.636,-0.346 -1.455,-0.642 -2.454,-0.886 -1,-0.244 -2.11,-0.401 -3.33,-0.468 -1.219,-0.067 -2.423,-0.016 -3.611,0.152 -1.637,0.231 -3.1,0.69 -4.387,1.373 -1.287,0.685 -2.348,1.522 -3.183,2.509 -0.834,0.988 -1.431,2.105 -1.791,3.35 -0.362,1.246 -0.437,2.56 -0.227,3.941 0.222,1.459 0.696,2.768 1.417,3.927 0.72,1.16 1.631,2.123 2.726,2.888 1.095,0.765 2.357,1.299 3.789,1.6 1.433,0.302 2.964,0.336 4.595,0.106 1.139,-0.16 2.259,-0.459 3.36,-0.898 1.102,-0.439 2.105,-0.929 3.01,-1.468 0.904,-0.539 1.671,-1.086 2.299,-1.638 0.627,-0.553 1.079,-1.018 1.305,-1.385 0.132,-0.215 0.159,-0.464 0.086,-0.716 -0.072,-0.251 -0.175,-0.486 -0.309,-0.704 0.303,-0.243 0.452,-0.363 0.754,-0.606 2.024,2.352 3.03,3.531 5.032,5.893"
   style="fill:#ffffff;fill-rule:nonzero"
   id="path1" />&#10;    </g>&#10;    <g
   transform="matrix(4.16667,0,0,4.16667,219.13909,126.70618)"
   id="g2">&#10;        <path
   d="m 0,-19.819 c -0.73,0.077 -1.096,0.115 -1.827,0.193 -1.473,5.281 -2.195,7.921 -3.618,13.205 C -0.727,-6.95 1.633,-7.199 6.356,-7.674 3.838,-12.539 2.567,-14.969 0,-19.819 m -6.609,17.828 c -0.313,1.285 -0.468,1.929 -0.778,3.215 -0.455,1.302 -0.058,1.998 1.186,2.091 0.044,0.386 0.065,0.579 0.109,0.965 -3.847,0.438 -5.77,0.666 -9.615,1.141 -0.047,-0.385 -0.072,-0.577 -0.119,-0.962 0.701,-0.269 1.215,-0.691 1.539,-1.265 0.324,-0.574 0.593,-1.175 0.808,-1.801 2.526,-8.876 3.826,-13.31 6.502,-22.171 0.082,-0.218 0.133,-0.432 0.15,-0.643 0.016,-0.21 -0.02,-0.408 -0.108,-0.593 -0.087,-0.185 -0.246,-0.344 -0.475,-0.474 -0.231,-0.131 -0.55,-0.226 -0.96,-0.283 -0.044,-0.386 -0.065,-0.577 -0.109,-0.963 5.66,-0.641 8.49,-0.942 14.155,-1.506 0.039,0.386 0.059,0.578 0.098,0.964 -0.442,0.148 -0.76,0.319 -0.956,0.507 -0.196,0.189 -0.31,0.382 -0.343,0.58 -0.035,0.199 -0.014,0.405 0.061,0.617 0.075,0.213 0.175,0.42 0.302,0.615 4.461,8.072 6.656,12.118 10.973,20.235 0.34,0.567 0.729,1.097 1.167,1.59 0.437,0.493 1.025,0.797 1.768,0.913 0.034,0.386 0.052,0.58 0.087,0.966 C 14.978,2.092 13.051,2.271 9.199,2.652 9.161,2.265 9.142,2.072 9.104,1.686 9.687,1.498 10.064,1.221 10.238,0.853 10.412,0.485 10.313,-0.005 9.938,-0.619 9.334,-1.808 9.031,-2.402 8.424,-3.59 2.407,-2.995 -0.6,-2.675 -6.609,-1.991"
   style="fill:#ffffff;fill-rule:nonzero"
   id="path2" />&#10;    </g>&#10;    <g
   transform="matrix(4.16667,0,0,4.16667,399.51909,98.726178)"
   id="g3">&#10;        <path
   d="m 0,-13.032 c -0.061,-0.955 -0.365,-1.669 -0.915,-2.139 -0.549,-0.47 -1.217,-0.796 -2.002,-0.977 -0.784,-0.181 -1.615,-0.254 -2.492,-0.22 -0.877,0.035 -1.661,0.076 -2.351,0.125 -3.326,0.237 -4.987,0.361 -8.312,0.624 0.244,3.081 0.365,4.621 0.609,7.701 3.379,-0.267 5.068,-0.393 8.449,-0.633 0.711,-0.05 1.493,-0.131 2.346,-0.242 0.852,-0.11 1.631,-0.318 2.339,-0.624 0.707,-0.306 1.287,-0.747 1.741,-1.322 0.453,-0.573 0.649,-1.337 0.588,-2.293 M 8.799,6.038 C 4.657,6.272 2.586,6.4 -1.554,6.676 -1.58,6.289 -1.593,6.094 -1.619,5.707 -1.363,5.638 -1.136,5.532 -0.936,5.388 -0.737,5.246 -0.646,5.034 -0.665,4.749 -0.678,4.543 -0.757,4.327 -0.902,4.104 -1.048,3.88 -1.206,3.671 -1.375,3.474 c -2.515,-2.93 -3.782,-4.39 -6.332,-7.305 -2.956,0.213 -4.433,0.324 -7.388,0.558 0.264,3.343 0.396,5.015 0.66,8.358 0.041,0.516 0.167,0.862 0.377,1.04 0.21,0.178 0.578,0.312 1.108,0.401 0.03,0.386 0.046,0.581 0.076,0.967 -3.546,0.276 -5.32,0.422 -8.864,0.729 l -0.083,-0.967 c 0.507,-0.174 0.844,-0.364 1.009,-0.573 0.165,-0.209 0.226,-0.572 0.182,-1.088 -0.784,-9.189 -1.176,-13.786 -1.96,-22.976 -0.044,-0.515 -0.167,-0.861 -0.369,-1.039 -0.203,-0.177 -0.576,-0.307 -1.119,-0.39 -0.034,-0.387 -0.05,-0.58 -0.084,-0.967 7.076,-0.612 10.617,-0.888 17.7,-1.381 1.359,-0.095 2.752,-0.073 4.18,0.067 1.428,0.14 2.74,0.473 3.934,0.995 1.195,0.523 2.195,1.292 3.002,2.306 0.806,1.016 1.255,2.337 1.35,3.965 0.071,1.215 -0.058,2.306 -0.385,3.271 -0.327,0.966 -0.813,1.815 -1.454,2.554 -0.643,0.739 -1.428,1.37 -2.357,1.895 -0.93,0.525 -1.951,0.954 -3.062,1.286 2.55,2.961 3.815,4.443 6.33,7.419 0.534,0.642 1.09,1.168 1.661,1.575 0.572,0.408 1.24,0.705 2.007,0.895 0.022,0.387 0.033,0.582 0.055,0.969"
   style="fill:#ffffff;fill-rule:nonzero"
   id="path3" />&#10;    </g>&#10;    <g
   transform="matrix(4.16667,0,0,4.16667,551.43909,65.896178)"
   id="g4">&#10;        <path
   d="m 0,-1.403 c -0.093,-3.207 -1.072,-5.549 -2.949,-7.019 -1.877,-1.468 -4.454,-2.146 -7.721,-2.019 -2.98,0.116 -4.471,0.18 -7.45,0.317 0.347,7.522 0.521,11.285 0.867,18.807 2.925,-0.135 4.388,-0.197 7.315,-0.311 C -8.061,8.3 -6.479,8.002 -5.19,7.478 -3.902,6.955 -2.873,6.256 -2.101,5.378 -1.33,4.499 -0.777,3.48 -0.443,2.318 -0.11,1.158 0.038,-0.083 0,-1.403 M 6.475,-1.571 C 6.513,0.137 6.296,1.844 5.825,3.55 5.354,5.256 4.496,6.791 3.253,8.157 c -1.244,1.366 -2.938,2.492 -5.082,3.387 -2.146,0.896 -4.863,1.4 -8.16,1.529 -5.825,0.228 -8.736,0.363 -14.56,0.674 -0.021,-0.387 -0.033,-0.581 -0.054,-0.969 0.487,-0.155 0.825,-0.335 1.009,-0.539 0.185,-0.204 0.261,-0.577 0.233,-1.12 -0.477,-9.179 -0.716,-13.769 -1.195,-22.948 -0.028,-0.542 -0.141,-0.913 -0.338,-1.11 -0.198,-0.197 -0.565,-0.333 -1.104,-0.408 -0.02,-0.388 -0.032,-0.582 -0.052,-0.97 6.144,-0.328 9.216,-0.469 15.362,-0.708 3.227,-0.125 5.936,0.194 8.12,0.942 2.184,0.748 3.937,1.767 5.26,3.053 1.323,1.285 2.274,2.757 2.856,4.414 0.581,1.655 0.888,3.338 0.927,5.045"
   style="fill:#ffffff;fill-rule:nonzero"
   id="path4" />&#10;    </g>&#10;    <g
   transform="matrix(4.16667,0,0,4.16667,633.49909,0.75617769)"
   id="g5">&#10;        <path
   d="m 0,27.976 c -3.538,0.036 -5.307,0.061 -8.845,0.127 -0.007,-0.388 -0.01,-0.582 -0.018,-0.97 0.491,-0.138 0.832,-0.307 1.024,-0.505 0.192,-0.197 0.284,-0.554 0.275,-1.072 C -7.726,16.335 -7.806,11.722 -7.965,2.501 -7.974,1.984 -8.074,1.63 -8.264,1.439 -8.454,1.249 -8.816,1.095 -9.352,0.976 -9.359,0.587 -9.364,0.392 -9.371,0.004 c 3.635,-0.068 5.452,-0.094 9.087,-0.131 0.004,0.389 0.007,0.583 0.011,0.971 -0.532,0.135 -0.897,0.299 -1.094,0.495 -0.198,0.197 -0.294,0.555 -0.288,1.073 0.103,9.221 0.155,13.835 0.261,23.056 0.006,0.518 0.108,0.873 0.305,1.065 0.197,0.192 0.557,0.348 1.079,0.472 0.004,0.388 0.006,0.583 0.01,0.971"
   style="fill:#ffffff;fill-rule:nonzero"
   id="path5" />&#10;    </g>&#10;    <g
   transform="matrix(4.16667,0,0,4.16667,803.45909,-0.02382231)"
   id="g6">&#10;        <path
   d="m 0,28.569 c -3.475,-0.104 -5.214,-0.148 -8.689,-0.223 0.007,-0.388 0.014,-0.583 0.022,-0.971 0.522,-0.118 0.875,-0.272 1.062,-0.462 0.185,-0.19 0.285,-0.543 0.296,-1.06 0.155,-6.861 0.233,-10.292 0.389,-17.153 -4.778,7.471 -7.123,11.22 -11.731,18.744 -4.219,-7.626 -6.37,-11.429 -10.745,-19.011 -0.008,6.863 -0.012,10.295 -0.018,17.157 -10e-4,0.519 0.082,0.875 0.252,1.069 0.168,0.194 0.514,0.356 1.034,0.486 -0.001,0.388 -0.001,0.583 -0.002,0.971 -3.288,-0.008 -4.932,-0.005 -8.221,0.014 -0.002,-0.389 -0.003,-0.582 -0.005,-0.97 0.492,-0.132 0.835,-0.296 1.029,-0.491 0.194,-0.195 0.29,-0.551 0.288,-1.069 C -35.081,16.378 -35.101,11.764 -35.14,2.541 -35.142,2.024 -35.244,1.669 -35.445,1.476 -35.646,1.283 -35.999,1.123 -36.506,0.996 -36.508,0.608 -36.511,0.413 -36.513,0.025 -32.061,0 -29.834,0 -25.383,0.021 c -0.002,0.388 -0.002,0.583 -0.004,0.971 -0.453,0.05 -0.741,0.262 -0.863,0.636 -0.122,0.375 -0.078,0.758 0.133,1.147 3.233,5.696 4.831,8.549 7.978,14.27 3.406,-5.534 5.131,-8.293 8.629,-13.797 C -9.235,2.814 -9.142,2.4 -9.227,2.01 -9.312,1.62 -9.59,1.344 -10.067,1.18 -10.06,0.792 -10.059,0.597 -10.051,0.209 -5.695,0.294 -3.519,0.346 0.836,0.476 0.824,0.864 0.822,1.06 0.811,1.448 0.165,1.61 -0.236,1.792 -0.388,1.994 -0.54,2.197 -0.623,2.518 -0.636,2.958 c -0.266,9.218 -0.397,13.829 -0.658,23.048 -0.015,0.518 0.073,0.875 0.263,1.075 0.189,0.199 0.544,0.373 1.06,0.517 C 0.018,27.986 0.012,28.181 0,28.569"
   style="fill:#ffffff;fill-rule:nonzero"
   id="path6" />&#10;    </g>&#10;    <g
   transform="matrix(4.16667,0,0,4.16667,929.43909,2.4861777)"
   id="g7">&#10;        <path
   d="m 0,30.248 c -0.373,-0.022 -0.562,-0.033 -0.935,-0.055 -0.058,-0.34 -0.165,-0.588 -0.326,-0.739 -0.16,-0.152 -0.553,-0.245 -1.177,-0.281 -9.56,-0.546 -14.337,-0.762 -23.903,-1.084 0.013,-0.388 0.021,-0.583 0.033,-0.971 0.498,-0.112 0.845,-0.262 1.047,-0.449 0.201,-0.187 0.312,-0.553 0.33,-1.097 0.319,-9.202 0.481,-13.803 0.807,-23.004 0.019,-0.516 -0.064,-0.876 -0.242,-1.076 -0.179,-0.201 -0.532,-0.374 -1.062,-0.521 0.014,-0.388 0.018,-0.583 0.032,-0.971 9.684,0.326 14.524,0.546 24.203,1.095 0.56,0.032 0.95,0.016 1.168,-0.049 C 0.192,0.98 0.354,0.718 0.462,0.257 0.862,0.281 1.063,0.292 1.464,0.316 1.29,3.214 1.203,4.663 1.03,7.561 0.633,7.538 0.435,7.526 0.037,7.503 -0.043,7.058 -0.164,6.721 -0.323,6.491 -0.483,6.262 -0.787,6.134 -1.239,6.108 -7.91,5.728 -11.245,5.564 -17.919,5.29 c -0.11,2.653 -0.165,3.979 -0.274,6.632 3.924,0.161 5.885,0.251 9.809,0.449 0.554,0.028 0.927,-0.037 1.12,-0.195 0.193,-0.158 0.384,-0.491 0.57,-1 0.38,0.019 0.57,0.029 0.95,0.049 -0.152,2.853 -0.231,4.279 -0.381,7.132 -0.378,-0.02 -0.563,-0.029 -0.941,-0.048 -0.105,-0.524 -0.258,-0.883 -0.459,-1.075 -0.202,-0.191 -0.561,-0.301 -1.086,-0.328 -3.907,-0.197 -5.86,-0.287 -9.767,-0.447 -0.112,2.746 -0.169,4.12 -0.281,6.866 6.59,0.27 9.883,0.432 16.471,0.808 0.546,0.031 0.923,-0.031 1.129,-0.188 0.206,-0.156 0.385,-0.489 0.546,-0.998 0.376,0.022 0.567,0.033 0.943,0.056 C 0.258,25.901 0.171,27.35 0,30.248"
   style="fill:#ffffff;fill-rule:nonzero"
   id="path7" />&#10;    </g>&#10;    <g
   transform="matrix(4.16667,0,0,4.16667,1075.8091,8.8361777)"
   id="g8">&#10;        <path
   d="m 0,30.489 c -3.372,-0.317 -5.058,-0.47 -8.432,-0.76 0.034,-0.386 0.053,-0.578 0.086,-0.965 0.315,0.001 0.533,-0.072 0.664,-0.216 0.131,-0.145 0.183,-0.316 0.161,-0.512 -0.022,-0.197 -0.101,-0.419 -0.237,-0.664 -0.136,-0.246 -0.285,-0.478 -0.449,-0.699 -5.76,-7.04 -8.693,-10.539 -14.656,-17.496 -0.474,6.722 -0.708,10.083 -1.179,16.804 -0.034,0.49 0.014,0.832 0.144,1.022 0.128,0.19 0.476,0.397 1.035,0.618 -0.028,0.388 -0.044,0.582 -0.072,0.969 -3.22,-0.23 -4.833,-0.339 -8.054,-0.544 0.024,-0.388 0.039,-0.581 0.063,-0.969 0.606,-0.09 0.988,-0.242 1.145,-0.453 0.156,-0.209 0.248,-0.547 0.278,-1.011 0.595,-9.204 0.893,-13.807 1.495,-23.01 0.034,-0.515 -0.029,-0.877 -0.189,-1.082 -0.161,-0.204 -0.518,-0.388 -1.069,-0.553 0.025,-0.388 0.037,-0.581 0.062,-0.968 3.854,0.245 5.781,0.375 9.634,0.656 -0.029,0.387 -0.039,0.581 -0.068,0.968 -0.485,0.043 -0.745,0.295 -0.779,0.76 -0.019,0.258 0.029,0.497 0.147,0.712 0.118,0.217 0.266,0.409 0.44,0.577 5.677,6.733 8.469,10.12 13.959,16.928 C -5.304,14.12 -5.02,10.88 -4.449,4.399 -4.408,3.935 -4.442,3.607 -4.547,3.416 -4.65,3.225 -5.025,2.998 -5.672,2.734 -5.639,2.347 -5.62,2.155 -5.587,1.768 -2.296,2.052 -0.652,2.199 2.637,2.509 2.601,2.895 2.583,3.089 2.547,3.475 1.918,3.598 1.527,3.757 1.375,3.95 1.223,4.144 1.129,4.46 1.088,4.898 0.23,14.081 -0.194,18.673 -1.046,27.857 c -0.046,0.489 0.004,0.845 0.154,1.067 0.15,0.222 0.478,0.422 0.985,0.6 C 0.057,29.91 0.036,30.103 0,30.489"
   style="fill:#ffffff;fill-rule:nonzero"
   id="path8" />&#10;    </g>&#10;    <g
   transform="matrix(4.16667,0,0,4.16667,1221.9691,101.78618)"
   id="g9">&#10;        <path
   d="m 0,-9.777 c -0.396,-0.05 -0.594,-0.075 -0.989,-0.125 -0.044,-0.5 -0.16,-0.868 -0.345,-1.098 -0.186,-0.232 -0.544,-0.383 -1.072,-0.448 -3.534,-0.438 -5.303,-0.649 -8.84,-1.057 -0.941,8.144 -1.41,12.217 -2.348,20.362 -0.062,0.54 -0.011,0.917 0.148,1.13 0.158,0.214 0.489,0.416 0.991,0.605 -0.045,0.385 -0.065,0.578 -0.109,0.963 -3.491,-0.407 -5.236,-0.603 -8.728,-0.98 0.042,-0.386 0.061,-0.579 0.103,-0.965 0.528,-0.046 0.901,-0.177 1.121,-0.387 0.219,-0.209 0.356,-0.558 0.41,-1.047 0.888,-8.15 1.332,-12.226 2.224,-20.375 -3.539,-0.387 -5.309,-0.572 -8.851,-0.928 -0.53,-0.053 -0.903,0.002 -1.119,0.162 -0.217,0.161 -0.416,0.49 -0.6,0.992 -0.396,-0.039 -0.594,-0.057 -0.99,-0.096 0.285,-2.906 0.429,-4.358 0.715,-7.263 0.399,0.039 0.598,0.059 0.998,0.098 0.085,0.503 0.222,0.796 0.416,0.88 0.192,0.084 0.552,0.152 1.085,0.206 9.606,0.966 14.405,1.505 23.993,2.693 0.266,0.032 0.485,0.06 0.658,0.082 0.172,0.021 0.324,0.014 0.45,-0.022 0.126,-0.036 0.235,-0.115 0.331,-0.234 0.096,-0.118 0.186,-0.302 0.272,-0.552 0.398,0.05 0.597,0.075 0.996,0.125 -0.369,2.911 -0.552,4.367 -0.92,7.279"
   style="fill:#ffffff;fill-rule:nonzero"
   id="path9" />&#10;    </g>&#10;    <g
   transform="matrix(4.16667,0,0,4.16667,1348.5391,71.146178)"
   id="g10">&#10;        <path
   d="m 0,14.917 c -0.187,1.176 -0.578,2.181 -1.174,3.017 -0.597,0.836 -1.331,1.546 -2.202,2.131 -0.872,0.584 -1.836,1.043 -2.891,1.379 -1.054,0.336 -2.138,0.572 -3.252,0.705 -1.113,0.133 -2.221,0.192 -3.323,0.174 -1.102,-0.018 -2.119,-0.094 -3.047,-0.227 -1.985,-0.286 -3.901,-0.712 -5.754,-1.282 -1.853,-0.569 -3.628,-1.403 -5.324,-2.483 -0.362,-0.231 -0.709,-0.368 -1.031,-0.41 -0.323,-0.043 -0.654,0.097 -0.985,0.419 -0.426,-0.243 -0.636,-0.362 -1.062,-0.606 1.582,-2.598 2.377,-3.896 3.976,-6.488 0.417,0.212 0.623,0.317 1.04,0.529 -0.113,0.246 -0.159,0.503 -0.141,0.766 0.018,0.264 0.143,0.518 0.375,0.754 0.505,0.513 1.177,0.98 1.991,1.404 0.815,0.424 1.681,0.799 2.601,1.122 0.919,0.324 1.838,0.603 2.756,0.837 0.919,0.235 1.743,0.404 2.468,0.508 0.543,0.078 1.249,0.135 2.116,0.17 0.867,0.035 1.72,-0.015 2.561,-0.152 0.841,-0.136 1.589,-0.405 2.245,-0.803 0.657,-0.398 1.042,-0.98 1.159,-1.748 0.135,-0.895 -0.344,-1.714 -1.444,-2.454 -1.1,-0.741 -2.881,-1.393 -5.261,-1.833 -0.946,-0.176 -1.963,-0.348 -3.012,-0.549 -1.049,-0.2 -2.092,-0.45 -3.128,-0.75 -1.035,-0.299 -2.018,-0.676 -2.953,-1.129 -0.937,-0.453 -1.76,-1.031 -2.467,-1.721 -0.774,-0.756 -1.313,-1.629 -1.597,-2.618 -0.283,-0.989 -0.35,-2.061 -0.2,-3.216 0.181,-1.386 0.668,-2.614 1.466,-3.684 0.798,-1.069 1.848,-1.929 3.146,-2.578 1.3,-0.649 2.811,-1.084 4.53,-1.305 1.717,-0.22 3.598,-0.186 5.639,0.107 1.67,0.239 3.411,0.651 5.22,1.234 1.809,0.582 3.71,1.42 5.499,2.558 0.657,0.419 1.171,0.712 1.535,0.808 0.363,0.096 0.798,0.013 1.3,-0.25 0.335,0.242 0.501,0.362 0.836,0.604 C 0.367,0.285 -0.549,1.501 -2.376,3.938 -2.771,3.672 -2.967,3.54 -3.361,3.275 -3.279,2.738 -3.4,2.211 -3.735,1.765 -4.179,1.174 -4.815,0.639 -5.554,0.174 c -0.738,-0.464 -1.525,-0.87 -2.363,-1.217 -0.838,-0.346 -1.687,-0.627 -2.545,-0.844 -0.857,-0.217 -1.653,-0.378 -2.392,-0.484 -0.528,-0.076 -1.203,-0.125 -2.02,-0.15 -0.818,-0.023 -1.615,0.046 -2.392,0.213 -0.776,0.166 -1.461,0.444 -2.05,0.833 -0.592,0.39 -0.936,0.957 -1.038,1.701 -0.094,0.692 0.028,1.284 0.362,1.774 0.335,0.49 0.771,0.894 1.315,1.217 0.544,0.324 1.131,0.577 1.762,0.757 0.629,0.18 1.21,0.315 1.726,0.418 1.879,0.378 3.687,0.773 5.376,1.113 1.69,0.341 3.359,0.862 4.857,1.611 0.76,0.38 1.486,0.875 2.153,1.41 0.666,0.536 1.228,1.133 1.686,1.794 0.457,0.66 0.793,1.383 1.004,2.163 0.21,0.78 0.247,1.59 0.113,2.434"
   style="fill:#ffffff;fill-rule:nonzero"
   id="path10" />&#10;    </g>&#10;</svg>
